#N canvas 0 92 1351 686 10;
#X obj 68 15 adc~;
#X obj 68 279 dac~;
#X obj 70 194 *~;
#X obj 217 138 osc~ 200;
#X obj 217 -23 vsl 15 128 0 127 0 0 empty empty empty 0 -9 0 10 -262144
-1 -1 2100 1;
#X obj 217 114 * 100;
#X obj 69 234 *~;
#X obj 321 137 / 127;
#X obj 321 -5 vsl 15 128 0 127 0 0 empty empty empty 0 -9 0 10 -262144
-1 -1 4200 1;
#X text 182 -59 Ring modulation effect;
#X text 287 -29 Output volume;
#X obj 67 52 delwrite~ echo 10000;
#X obj 70 138 delread~ echo 8000;
#X text 36 -103 Records input from microphone and plays it back after
a long time \, with an effect - be careful with feedback.;
#X connect 0 0 11 0;
#X connect 0 1 11 0;
#X connect 2 0 6 0;
#X connect 3 0 2 1;
#X connect 4 0 5 0;
#X connect 5 0 3 0;
#X connect 6 0 1 0;
#X connect 6 0 1 1;
#X connect 7 0 6 1;
#X connect 8 0 7 0;
#X connect 12 0 2 0;
